<svg xmlns="http://www.w3.org/2000/svg" viewBox="0 0 632 302"><defs><style>.cls-1{fill:#fff;}.cls-2{font-size:60px;}.cls-2,.cls-4{font-family:MyanmarText-Bold, Myanmar Text;font-weight:700;}.cls-3{fill:none;stroke:#000;stroke-miterlimit:10;stroke-width:2px;}.cls-4{font-size:15.16px;}</style></defs><title>no-border-on-wAsset 5</title><g id="Layer_2" data-name="Layer 2"><g id="Design_2" data-name="Design 2"><rect class="cls-1" width="632" height="302"/><text class="cls-2" transform="translate(165.59 120.91)">loca</text><path d="M296,168h-9.26v-4.09h-.12a10.41,10.41,0,0,1-9.29,4.82,11.42,11.42,0,0,1-9.05-3.93q-3.43-3.93-3.43-11,0-7.37,3.78-11.81a12.37,12.37,0,0,1,9.9-4.44q5.8,0,8.09,4.12h.12V81h9Zm-9.08-14.46v-2.24a7,7,0,0,0-1.7-4.82A6,6,0,0,0,276,147a11,11,0,0,0-1.73,6.57,9.56,9.56,0,0,0,1.67,6,6,6,0,0,0,9.21-.12A9.26,9.26,0,0,0,286.92,153.55Z"/><path d="M330.75,155.64H311.18q.47,6.53,8.23,6.53a16.07,16.07,0,0,0,8.7-2.34v6.68a22.86,22.86,0,0,1-10.81,2.23q-7.27,0-11.28-4t-4-11.24q0-7.47,4.34-11.84A14.44,14.44,0,0,1,317,137.27q6.56,0,10.15,3.9t3.59,10.58ZM322.16,150q0-6.44-5.21-6.45a5,5,0,0,0-3.85,1.85,8.38,8.38,0,0,0-2,4.6Z"/><path d="M334.29,167.21v-7.5a19.69,19.69,0,0,0,4.56,2.05,15.09,15.09,0,0,0,4.29.67,9.2,9.2,0,0,0,3.88-.67,2.18,2.18,0,0,0,1.42-2.05,1.9,1.9,0,0,0-.64-1.46,6,6,0,0,0-1.66-1,18.78,18.78,0,0,0-2.21-.79q-1.2-.35-2.31-.79a22.18,22.18,0,0,1-3.15-1.45,9.08,9.08,0,0,1-2.29-1.8,7.08,7.08,0,0,1-1.41-2.37,9.47,9.47,0,0,1-.48-3.19,8.22,8.22,0,0,1,1.1-4.34,9,9,0,0,1,2.93-3,13.39,13.39,0,0,1,4.19-1.7,21.84,21.84,0,0,1,4.91-.54,27.23,27.23,0,0,1,4,.31,30.21,30.21,0,0,1,4,.89v7.15a14.62,14.62,0,0,0-3.76-1.54,15.9,15.9,0,0,0-3.94-.51,8.77,8.77,0,0,0-1.71.16,5.64,5.64,0,0,0-1.42.47,2.61,2.61,0,0,0-1,.79,1.82,1.82,0,0,0-.35,1.1,2,2,0,0,0,.53,1.41,4.56,4.56,0,0,0,1.38,1,13.53,13.53,0,0,0,1.89.76l2.07.69a26.85,26.85,0,0,1,3.34,1.41,10.7,10.7,0,0,1,2.56,1.79,7,7,0,0,1,1.64,2.4,9.61,9.61,0,0,1-.59,7.84,9.27,9.27,0,0,1-3.08,3.08,14,14,0,0,1-4.42,1.73,24.52,24.52,0,0,1-5.2.54A26.82,26.82,0,0,1,334.29,167.21Z"/><path d="M367.34,133.25a5.41,5.41,0,0,1-3.84-1.39,4.48,4.48,0,0,1-1.49-3.41,4.32,4.32,0,0,1,1.49-3.4,6.27,6.27,0,0,1,7.69,0,4.34,4.34,0,0,1,1.48,3.4,4.47,4.47,0,0,1-1.48,3.46A5.5,5.5,0,0,1,367.34,133.25ZM371.91,168h-9.26V138h9.26Z"/><path d="M409.12,164.57q0,8.35-4.83,12.93t-14,4.58a22.2,22.2,0,0,1-9.61-1.73v-7.79a18.4,18.4,0,0,0,9.35,2.7q4.69,0,7.27-2.48a8.89,8.89,0,0,0,2.58-6.72v-2.37h-.12a10.34,10.34,0,0,1-9.35,5,11.24,11.24,0,0,1-9.11-4q-3.37-4-3.37-10.84,0-7.62,3.75-12.1a12.24,12.24,0,0,1,9.87-4.48,9.11,9.11,0,0,1,8.2,4.22h.12V138h9.26Zm-9.14-11v-2.37a7.29,7.29,0,0,0-1.68-4.85,5.45,5.45,0,0,0-4.38-2,5.66,5.66,0,0,0-4.83,2.4,11.3,11.3,0,0,0-1.76,6.77,9.53,9.53,0,0,0,1.67,5.93,5.44,5.44,0,0,0,4.57,2.18,5.66,5.66,0,0,0,4.64-2.21A9.07,9.07,0,0,0,400,153.59Z"/><path d="M445.82,168H436.6V151.33q0-7-5-7a4.94,4.94,0,0,0-4,1.85,7,7,0,0,0-1.55,4.69V168h-9.26V138h9.26v4.75h.12a10.61,10.61,0,0,1,9.64-5.48q10,0,10,12.36Z"/><rect x="264.78" y="177" width="108" height="5"/><rect x="408.78" y="177" width="37" height="5"/><line class="cls-3" x1="172.78" y1="125" x2="172.78" y2="195"/><line class="cls-3" x1="427.78" y1="97" x2="427.78" y2="133"/><line class="cls-3" x1="254.78" y1="194" x2="172.78" y2="194"/><line class="cls-3" x1="428.78" y1="97" x2="301.78" y2="97"/><text class="cls-4" transform="translate(264.78 199.88)">Web Design &amp; Marketing</text></g></g></svg>